<?xml version="1.0" encoding="UTF-8"?>
<svg width="370px" height="370px" viewBox="0 0 370 370" version="1.1" xmlns="http://www.w3.org/2000/svg" xmlns:xlink="http://www.w3.org/1999/xlink">
    <!-- Generator: Sketch 41.2 (35397) - http://www.bohemiancoding.com/sketch -->
    <title>Group 2</title>
    <desc>Created with Sketch.</desc>
    <defs>
        <polygon id="path-1" points="0 370 0 0.66 184.66995 0.66 369.3399 0.66 369.3399 370 184.66995 370"></polygon>
    </defs>
    <g id="Page-1" stroke="none" stroke-width="1" fill="none" fill-rule="evenodd">
        <g id="Group-2" transform="translate(0.000000, -1.000000)">
            <g id="sa-logo">
                <g id="Page-1">
                    <g id="Group">
                        <path d="M182.6701,59.3501 C255.3401,59.3501 314.2501,118.2601 314.2501,190.9301 C314.2501,263.6001 255.3401,322.5101 182.6701,322.5101 C110.0001,322.5101 51.0901,263.6001 51.0901,190.9301 C51.0901,118.2601 110.0001,59.3501 182.6701,59.3501 L182.6701,59.3501 Z" id="Fill-1" fill="#348DCC"></path>
                        <path d="M161.6301,94.31 C194.6121,94.31 221.3501,121.048 221.3501,154.03 C221.3501,187.012 194.6121,213.75 161.6301,213.75 C128.6481,213.75 101.9101,187.012 101.9101,154.03 C101.9101,121.048 128.6481,94.31 161.6301,94.31" id="Fill-3" fill="#E55E25"></path>
                        <path d="M161.6299,96.8 C130.0279,96.8 104.4099,122.418 104.4099,154.02 C104.4099,185.622 130.0279,211.24 161.6299,211.24 C193.2319,211.24 218.8499,185.622 218.8499,154.02 C218.8109,122.434 193.2159,96.839 161.6299,96.8 M161.6299,216.25 C127.2669,216.25 99.4099,188.393 99.4099,154.03 C99.4099,119.667 127.2669,91.81 161.6299,91.81 C195.9929,91.81 223.8499,119.667 223.8499,154.03 L223.8499,154.03 C223.8109,188.377 195.9769,216.211 161.6299,216.25" id="Fill-5" fill="#231F1F"></path>
                        <polyline id="Fill-7" fill="#231F1F" points="239.6799 167.9699 190.7499 134.2099 132.2099 175.1599 172.7099 212.7299"></polyline>
                        <polyline id="Fill-9" fill="#231F1F" points="143.52 179.3599 131.91 169.8799 124.67 170.6199 110.63 160.9799 36.15 223.5599 130.34 314.3299 327.53 283.7499 323.77 205.2499 264.26 145.2899 226.81 169.6799 222.18 166.9899 171.48 204.9899"></polyline>
                        <polygon id="Fill-11" fill="#FFFFFF" points="299.4101 199.51 284.1001 187.57 296.3401 213.42"></polygon>
                        <polygon id="Fill-13" fill="#FFFFFF" points="286.1601 211.52 270.9701 189.29 272.3101 202.37 264.3201 198.94 266.4001 213.54 286.3101 212.98"></polygon>
                        <polygon id="Fill-15" fill="#FFFFFF" points="259.6401 219.75 255.3401 189.88 264.6101 158.34 209.3501 194.58 204.0901 190.29 147.4901 232.88 176.3201 222.7 176.7601 237.67 225.0301 232.67 247.2801 205.49"></polygon>
                        <polygon id="Fill-17" fill="#FFFFFF" points="221.1201 168.55 226.5801 166.83 190.8401 143.38 178.4101 152.01 177.0601 165.57 169.4901 163.14 162.4401 176.9 138.7701 198.01 147.6301 195.33 190.7701 172.97 206.6201 179.7 206.1801 173.92 209.2301 171.66 208.3801 165.57 214.1201 167.91 218.7701 167.67"></polygon>
                        <polygon id="Fill-19" fill="#FFFFFF" points="140.7299 210.3 118.2399 198.93 119.4799 211.1"></polygon>
                        <polygon id="Fill-21" fill="#FFFFFF" points="110.6701 169.0799 76.3001 198.4999 99.2101 200.1199 103.1201 191.9999 110.7601 193.6299 106.6401 181.9499"></polygon>
                        <polygon id="Fill-23" fill="#FFFFFF" points="242.6601 229.81 230.5801 244.14 233.5501 252.14 241.0501 250.64"></polygon>
                        <polygon id="Fill-25" fill="#FFFFFF" points="88.03 229.81 131.2 249.79 169.73 255.46 182.39 264.79 138.49 273.46 125.87 256.12"></polygon>
                        <path d="M299.3398,185.67 C299.3398,249 247.9998,300.34 184.6698,300.34 C121.3398,300.34 69.9998,249.001 69.9998,185.67 C69.9998,122.34 121.3398,71 184.6698,71 C248.0008,71 299.3398,122.339 299.3398,185.67 L299.3398,185.67 L299.3398,185.67 Z M184.6698,6 C85.4408,6 4.9998,86.441 4.9998,185.67 C4.9998,284.899 85.4408,365.34 184.6698,365.34 C283.8988,365.34 364.3398,284.899 364.3398,185.67 L364.3398,185.67 C364.3398,86.441 283.8988,6 184.6698,6 L184.6698,6 Z" id="Fill-29" fill="#FFFFFF"></path>
                        <g id="Group-33" transform="translate(0.000000, 0.340000)">
                            <g id="Fill-31-Clipped">
                                <mask id="mask-2" fill="white">
                                    <use xlink:href="#path-1"></use>
                                </mask>
                                <g id="path-1"></g>
                                <path d="M184.6699,75.67 C124.1009,75.67 74.9999,124.771 74.9999,185.34 C74.9999,245.909 124.1009,295.01 184.6699,295.01 C245.2389,295.01 294.3399,245.909 294.3399,185.34 L294.3399,185.34 C294.2789,124.794 245.2149,75.726 184.6699,75.66 L184.6699,75.67 Z M184.6699,305 C118.5779,305 64.9999,251.422 64.9999,185.33 C64.9999,119.238 118.5779,65.66 184.6699,65.66 C250.7619,65.66 304.3399,119.238 304.3399,185.33 C304.2679,251.392 250.7319,304.928 184.6699,305 L184.6699,305 Z M184.6699,10.67 C88.3599,10.67 9.9999,89.03 9.9999,185.34 C9.9999,281.65 88.3499,360.01 184.6699,360.01 C280.9899,360.01 359.3399,281.66 359.3399,185.34 C359.3399,89.02 280.9799,10.66 184.6699,10.66 L184.6699,10.67 Z M184.6699,370 C82.8399,370 -0.0001,287.16 -0.0001,185.33 C-0.0001,83.5 82.8399,0.66 184.6699,0.66 C286.4999,0.66 369.3399,83.5 369.3399,185.33 C369.3399,287.16 286.4999,370 184.6699,370 L184.6699,370 Z" id="Fill-31" fill="#231F1F" mask="url(#mask-2)"></path>
                            </g>
                        </g>
                        <path d="M45.4199,240.95 C28.3159,197.73 32.1969,149.025 55.9299,109.06 L60.2199,111.62 C37.2799,150.252 33.5279,197.332 50.0599,239.11 L45.4199,240.95 Z" id="Fill-34" fill="#231F1F"></path>
                        <path d="M324.8599,238.56 L320.1799,236.79 C335.6849,195.548 331.6159,149.495 309.1199,111.61 L313.4099,109.05 C336.6899,148.243 340.9019,195.89 324.8599,238.56" id="Fill-36" fill="#231F1F"></path>
                        <path d="M87.9099,89.8499 L87.9099,83.1199 C91.2349,83.1169 94.4569,81.9659 97.0299,79.8599 C98.6199,78.5199 99.0299,77.2499 98.2499,76.3299 L98.1999,76.2699 C97.4499,75.3799 96.3399,75.4799 92.8599,77.2699 C87.4199,80.0599 82.8599,81.7199 79.1099,77.2699 L79.0599,77.2099 C75.7199,73.2099 76.4599,67.6999 81.6099,63.3799 C84.6949,60.5859 88.6699,58.9739 92.8299,58.8299 L93.3799,65.5199 C90.5509,65.6829 87.8379,66.7019 85.5999,68.4399 C84.1599,69.6499 83.9699,70.8499 84.5999,71.6199 L84.6499,71.6799 C85.4699,72.6799 86.5699,72.4699 90.1099,70.6799 C95.9399,67.6199 100.3499,66.6799 103.7099,70.6799 L103.7599,70.7399 C107.4299,75.1199 106.1499,80.6299 100.9399,84.9999 C97.3369,88.1579 92.7009,89.8839 87.9099,89.8499" id="Fill-38" fill="#231F1F"></path>
                        <path d="M125.76,52.57 L125.76,52.5 C124.089,48.843 119.77,47.232 116.113,48.903 C116.052,48.931 115.991,48.96 115.93,48.99 C112.14,50.9 111.15,55.25 112.93,58.85 L112.93,58.92 C114.593,62.575 118.904,64.189 122.558,62.526 C122.612,62.501 122.666,62.476 122.72,62.45 C126.59,60.52 127.58,56.18 125.73,52.57 L125.76,52.57 Z M105.9,62.57 L105.9,62.5 C102.28,55.32 105.14,46.58 112.9,42.7 C120.66,38.82 129.23,41.7 132.84,48.87 L132.84,48.94 C136.46,56.12 133.6,64.86 125.84,68.74 C118.08,72.62 109.52,69.75 105.9,62.57 L105.9,62.57 Z" id="Fill-40" fill="#231F1F"></path>
                        <path d="M140.6099,48.18 L137.1999,32.83 L144.8899,31.12 L148.2699,46.31 C149.1499,50.25 151.5599,51.69 154.5999,51.01 C157.6399,50.33 159.2399,48.09 158.3899,44.27 L154.9699,28.89 L162.6599,27.18 L166.0299,42.33 C168.0299,51.15 163.8199,56.14 156.0299,57.87 C148.2399,59.6 142.5099,56.77 140.6099,48.18" id="Fill-42" fill="#231F1F"></path>
                        <path d="M187.24,39.7 C189.88,39.7 191.42,38.49 191.45,36.45 L191.45,36.37 C191.45,34.17 189.9,33.03 187.3,32.98 L182.22,32.9 L182.11,39.62 L187.24,39.7 Z M174.58,26.06 L187.82,26.27 C192.1,26.34 195.04,27.51 196.89,29.46 C198.566,31.217 199.429,33.597 199.27,36.02 L199.27,36.1 C199.341,39.911 196.964,43.34 193.37,44.61 L199.89,54.48 L190.89,54.34 L185.39,45.77 L185.31,45.77 L181.99,45.72 L181.85,54.2 L174.09,54.08 L174.58,26.06 Z" id="Fill-44" fill="#231F1F"></path>
                        <path d="M206.1799,41.31 L206.1799,41.23 C207.9449,33.487 215.6519,28.64 223.3959,30.405 C223.5779,30.446 223.7599,30.491 223.9399,30.54 C229.4999,31.88 232.5099,35.08 234.1199,39 L227.3799,42 C226.2899,39.68 224.8099,38 222.1999,37.38 C218.3899,36.46 214.9299,39.04 213.9699,43.01 L213.9699,43.09 C212.9699,47.17 214.8999,51.01 218.7099,51.93 C221.5499,52.62 223.5399,51.7 225.6499,50.11 L230.3499,55.52 C224.2579,60.92 214.9419,60.358 209.5419,54.266 C206.4119,50.734 205.1619,45.918 206.1799,41.31" id="Fill-46" fill="#231F1F"></path>
                        <polygon id="Fill-48" fill="#231F1F" points="245.3401 37.8 265.5401 47.8 262.6201 53.72 249.3101 47.16 247.4401 50.96 259.4901 56.9 256.7801 62.39 244.7301 56.4 242.7301 60.4 256.2201 67.05 253.3001 72.97 232.9201 62.97"></polygon>
                        <path d="M270.3298,77.05 C273.9298,79.98 277.9398,79.93 280.7898,76.42 L280.7898,76.36 C283.6198,72.88 282.8598,68.92 279.2598,66 L276.8098,64 L267.8098,75.05 L270.3298,77.05 Z M275.1698,53.77 L283.5498,60.58 C291.3098,66.89 292.1798,75.01 287.0898,81.29 L287.0898,81.35 C281.9998,87.62 273.6498,88.57 265.8198,82.22 L257.5598,75.51 L275.1698,53.77 Z" id="Fill-50" fill="#231F1F"></path>
                        <path d="M61.27,268.18 L66.27,261.26 L57.86,262.89 L61.27,268.18 Z M72.06,253.18 L76.06,259.48 L58.73,284.73 L54.24,277.73 L57.35,273.31 L51.52,264.21 L46.23,265.21 L41.83,258.34 L72.06,253.18 Z" id="Fill-52" fill="#231F1F"></path>
                        <path d="M78.1902,294.92 C81.5502,298.12 85.5502,298.38 88.6602,295.11 L88.7202,295.05 C91.8102,291.8 91.3702,287.8 88.0002,284.6 L85.7102,282.42 L75.9002,292.74 L78.1902,294.92 Z M84.8302,272.09 L92.6602,279.53 C99.9102,286.42 100.1402,294.59 94.5802,300.45 L94.5302,300.51 C88.9602,306.37 80.5302,306.66 73.2602,299.72 L65.5502,292.39 L84.8302,272.09 Z" id="Fill-54" fill="#231F1F"></path>
                        <polygon id="Fill-56" fill="#231F1F" points="104.73 291.09 112.19 295.52 108.61 314.01 123.13 302.01 130.46 306.36 106.29 324.8 100.1 321.12"></polygon>
                        <polygon id="Fill-58" fill="#231F1F" points="134.05 307.48 155.49 314.38 153.49 320.66 139.36 316.11 138.06 320.11 150.86 324.23 148.99 330.06 136.19 325.94 134.83 330.17 149.15 334.78 147.15 341.06 125.52 334.06"></polygon>
                        <polygon id="Fill-60" fill="#231F1F" points="160.4099 315.54 167.6199 316.14 177.8699 331.85 179.0999 317.1 186.7499 317.74 184.4199 345.64 177.6399 345.07 166.9999 328.77 165.7199 344.07 158.0699 343.43"></polygon>
                        <polygon id="Fill-62" fill="#231F1F" points="200.3899 323.07 192.0699 324.25 191.0699 317.52 215.3899 314.08 216.3899 320.81 208.0699 321.99 211.0699 342.99 203.3899 344.08"></polygon>
                        <path d="M224.9299,327.85 L219.3299,313.16 L226.6899,310.35 L232.2299,324.89 C233.6699,328.66 236.2299,329.73 239.1699,328.62 C242.1099,327.51 243.3399,325.06 241.9399,321.4 L236.3199,306.68 L243.6799,303.87 L249.2099,318.37 C252.4299,326.82 249.0199,332.37 241.5899,335.19 C234.1599,338.01 228.0499,336.03 224.9299,327.85" id="Fill-64" fill="#231F1F"></path>
                        <path d="M266.6599,305.08 C268.8399,303.6 269.3799,301.69 268.2399,300 L268.2399,299.93 C267.0099,298.11 265.0499,298.08 262.8999,299.54 L258.6899,302.39 L262.4599,307.95 L266.6599,305.08 Z M248.4599,301.18 L259.4599,293.75 C262.9999,291.35 266.0799,290.61 268.7199,291.15 C271.0989,291.627 273.1689,293.077 274.4299,295.15 L274.4299,295.22 C276.6759,298.297 276.6999,302.467 274.4899,305.57 L285.4899,309.9 L278.0699,314.9 L268.6399,311.04 L268.5699,311.04 L265.8199,312.9 L270.5799,319.9 L264.1599,324.25 L248.4599,301.18 Z" id="Fill-66" fill="#231F1F"></path>
                        <polygon id="Fill-68" fill="#231F1F" points="272.6699 283.8899 288.1499 267.5299 292.9399 272.0699 282.7399 282.8499 285.8199 285.7599 295.0599 275.9999 299.5099 280.2099 290.2699 289.9699 293.4899 293.0199 303.8299 282.0999 308.6199 286.6399 292.9999 303.1399"></polygon>
                        <path d="M310.51,277.5199 L308.37,271.1399 C311.523,270.0779 314.212,267.9579 315.98,265.1399 C317.07,263.3699 317.04,262.0399 315.98,261.4099 L315.91,261.4099 C314.91,260.7999 313.91,261.2499 311.16,264.0299 C306.89,268.3999 303.05,271.4399 298.16,268.4299 L298.09,268.4299 C293.66,265.7099 292.6,260.2299 296.09,254.5099 C298.127,250.8799 301.382,248.0889 305.28,246.6299 L307.92,252.7999 C305.289,253.8539 303.04,255.6809 301.47,258.0399 C300.47,259.6399 300.69,260.8499 301.54,261.3699 L301.61,261.3699 C302.7,262.0399 303.68,261.5099 306.46,258.6599 C311.02,253.8999 314.88,251.5799 319.35,254.3199 L319.42,254.3199 C324.3,257.3199 324.83,262.9399 321.28,268.7399 C318.886,272.8869 315.054,276.0109 310.51,277.5199" id="Fill-70" fill="#231F1F"></path>
                    </g>
                </g>
            </g>
            <path d="M347.736,354.608 L347.736,351.2 L333.816,351.2 L333.816,354.608 L338.928,354.608 L338.928,368 L342.624,368 L342.624,354.608 L347.736,354.608 Z M367.368,368 L367.368,351.2 L363.384,351.2 L358.968,358.304 L354.552,351.2 L350.568,351.2 L350.568,368 L354.192,368 L354.192,357.104 L358.872,364.208 L358.968,364.208 L363.696,357.032 L363.696,368 L367.368,368 Z" id="TM" fill="#000000"></path>
        </g>
    </g>
</svg>